<svg width="32" height="32" viewBox="0 0 32 32" fill="none" xmlns="http://www.w3.org/2000/svg">
<g id="icon/nav/&#228;&#184;&#139;&#232;&#189;&#189;">
<path id="Vector" d="M16 2C13.2311 2 10.5243 2.82109 8.22202 4.35943C5.91973 5.89777 4.12532 8.08427 3.06569 10.6424C2.00607 13.2006 1.72882 16.0155 2.26901 18.7313C2.80921 21.447 4.14258 23.9416 6.10051 25.8995C8.05845 27.8574 10.553 29.1908 13.2687 29.731C15.9845 30.2712 18.7994 29.9939 21.3576 28.9343C23.9157 27.8747 26.1022 26.0803 27.6406 23.778C29.1789 21.4757 30 18.7689 30 16C30 12.287 28.525 8.72601 25.8995 6.1005C23.274 3.475 19.713 2 16 2Z" fill="black"/>
<path id="Vector_2" d="M17 8C17 7.44772 16.5523 7 16 7C15.4477 7 15 7.44772 15 8V16C15 16.5523 15.4477 17 16 17C16.5523 17 17 16.5523 17 16V8Z" fill="white"/>
<path id="Vector_3" d="M13.8869 12.4687C13.4964 12.0782 12.8633 12.0782 12.4727 12.4687C12.0822 12.8592 12.0822 13.4924 12.4727 13.8829L15.3012 16.7113C15.6917 17.1018 16.3248 17.1018 16.7154 16.7113C17.1059 16.3208 17.1059 15.6876 16.7154 15.2971L13.8869 12.4687Z" fill="white"/>
<path id="Vector_4" d="M18.1254 12.4742L15.297 15.3027C14.9064 15.6932 14.9064 16.3263 15.297 16.7169C15.6875 17.1074 16.3206 17.1074 16.7112 16.7169L19.5396 13.8884C19.9301 13.4979 19.9301 12.8648 19.5396 12.4742C19.1491 12.0837 18.5159 12.0837 18.1254 12.4742Z" fill="white"/>
<path id="Vector_5" d="M9.23047 18.5996L10.0005 20.0796C10.1907 20.4751 10.4887 20.8087 10.8602 21.0423C11.2317 21.2758 11.6617 21.3997 12.1005 21.3996H19.9305C20.3568 21.4006 20.7753 21.2846 21.1403 21.0642C21.5053 20.8438 21.8028 20.5274 22.0005 20.1496L22.8205 18.5996" stroke="#F3F3F3" stroke-width="2" stroke-linecap="round" stroke-linejoin="round"/>
</g>
</svg>
