<svg width="48" height="48" viewBox="0 0 48 48" fill="none" xmlns="http://www.w3.org/2000/svg">
<rect width="48" height="48" rx="4" fill="#001450" fill-opacity="0.05"/>
<path d="M22.0013 14.0003V20.667C22.0013 21.467 21.468 22.0003 20.668 22.0003H14.0013C13.2013 22.0003 12.668 21.467 12.668 20.667V14.0003C12.668 13.2003 13.2013 12.667 14.0013 12.667H20.668C21.468 12.667 22.0013 13.2003 22.0013 14.0003Z" stroke="#001450" stroke-width="1.5" stroke-linecap="round"/>
<path d="M18.6667 18.6667H16V16H18.6667V18.6667Z" fill="#DD0000"/>
<path d="M22.0013 27.3333V34C22.0013 34.8 21.468 35.3333 20.668 35.3333H14.0013C13.2013 35.3333 12.668 34.8 12.668 34V27.3333C12.668 26.5333 13.2013 26 14.0013 26H20.668C21.468 26 22.0013 26.5333 22.0013 27.3333Z" stroke="#001450" stroke-width="1.5" stroke-linecap="round"/>
<path d="M18.6667 29.334H16V32.0007H18.6667V29.334Z" fill="#DD0000"/>
<path d="M28.0026 33.334H25.3359V36.0007H28.0026V33.334Z" fill="#001450"/>
<path d="M32.0026 29.334H29.3359V32.0007H32.0026V29.334Z" fill="#001450"/>
<path d="M28.0026 25.334H25.3359V28.0007H28.0026V25.334Z" fill="#001450"/>
<path d="M36.0026 29.334H33.3359V32.0007H36.0026V29.334Z" fill="#001450"/>
<path d="M36.0026 25.334H33.3359V28.0007H36.0026V25.334Z" fill="#001450"/>
<path d="M36.0026 33.334H33.3359V36.0007H36.0026V33.334Z" fill="#001450"/>
<path d="M35.3333 14.0003V20.667C35.3333 21.467 34.8 22.0003 34 22.0003H27.3333C26.5333 22.0003 26 21.467 26 20.667V14.0003C26 13.2003 26.5333 12.667 27.3333 12.667H34C34.8 12.667 35.3333 13.2003 35.3333 14.0003Z" stroke="#001450" stroke-width="1.5" stroke-linecap="round"/>
<path d="M32.0026 16H29.3359V18.6667H32.0026V16Z" fill="#DD0000"/>
</svg>
