<svg width="16" height="16" viewBox="0 0 16 16" fill="none" xmlns="http://www.w3.org/2000/svg">
<path d="M14.2936 7.36665L8.16694 13.4933C7.41638 14.2439 6.3984 14.6655 5.33694 14.6655C4.27549 14.6655 3.2575 14.2439 2.50694 13.4933C1.75638 12.7428 1.33472 11.7248 1.33472 10.6633C1.33472 9.60186 1.75638 8.58388 2.50694 7.83332L8.63361 1.70665C9.13398 1.20628 9.81264 0.925171 10.5203 0.925171C11.2279 0.925171 11.9066 1.20628 12.4069 1.70665C12.9073 2.20703 13.1884 2.88568 13.1884 3.59332C13.1884 4.30096 12.9073 4.97961 12.4069 5.47999L6.27361 11.6067C6.02342 11.8568 5.68409 11.9974 5.33027 11.9974C4.97646 11.9974 4.63713 11.8568 4.38694 11.6067C4.13675 11.3565 3.9962 11.0171 3.9962 10.6633C3.9962 10.3095 4.13675 9.97018 4.38694 9.71999L10.0469 4.06665" stroke="#DD0000" stroke-linecap="round" stroke-linejoin="round"/>
</svg>
