<svg width="16" height="16" viewBox="0 0 16 16" fill="none" xmlns="http://www.w3.org/2000/svg">
<path d="M7.99992 1.79358L11.7733 5.56691C12.5195 6.31265 13.0278 7.26296 13.2339 8.29762C13.4399 9.33228 13.3345 10.4048 12.9309 11.3796C12.5274 12.3543 11.8438 13.1875 10.9667 13.7736C10.0895 14.3598 9.05824 14.6727 8.00326 14.6727C6.94828 14.6727 5.91699 14.3598 5.03985 13.7736C4.16272 13.1875 3.47913 12.3543 3.07557 11.3796C2.672 10.4048 2.56659 9.33228 2.77266 8.29762C2.97873 7.26296 3.48703 6.31265 4.23326 5.56691L7.99992 1.79358Z" stroke="#DD0000" stroke-linecap="round" stroke-linejoin="round"/>
<path d="M10.225 10.0011C10.3077 10.0075 10.3846 10.0462 10.4389 10.109C10.4932 10.1717 10.5205 10.2533 10.515 10.3361C10.4934 10.6529 10.4062 10.9618 10.259 11.2433C10.1119 11.5247 9.90789 11.7725 9.66 11.9711C9.28291 12.2935 8.81038 12.4832 8.315 12.5111C8.23146 12.5111 8.15134 12.4779 8.09226 12.4188C8.03319 12.3597 8 12.2796 8 12.1961C8 12.1125 8.03319 12.0324 8.09226 11.9733C8.15134 11.9143 8.23146 11.8811 8.315 11.8811C8.72101 11.8406 9.10013 11.6596 9.3868 11.3693C9.67348 11.0789 9.8497 10.6976 9.885 10.2911C9.88816 10.2497 9.89947 10.2093 9.91829 10.1723C9.93711 10.1352 9.96307 10.1023 9.99467 10.0753C10.0263 10.0484 10.0629 10.0279 10.1024 10.0152C10.1419 10.0025 10.1836 9.99765 10.225 10.0011Z" fill="#DD0000" stroke="#DD0000" stroke-width="0.5"/>
</svg>
