<svg width="32" height="32" viewBox="0 0 32 32" fill="none" xmlns="http://www.w3.org/2000/svg">
<g id="&#230;&#138;&#165;&#229;&#145;&#138;&#230;&#150;&#135;&#230;&#161;&#163;" clip-path="url(#clip0_4355_113418)">
<path id="Vector" d="M5 1C4.20435 1 3.44129 1.31607 2.87868 1.87868C2.31607 2.44129 2 3.20435 2 4V28C2 28.7956 2.31607 29.5587 2.87868 30.1213C3.44129 30.6839 4.20435 31 5 31H27C27.7956 31 28.5587 30.6839 29.1213 30.1213C29.6839 29.5587 30 28.7956 30 28V9L22 1H5Z" fill="#F2F4F5"/>
<path id="Vector_2" d="M24.5 8.99957C24.1571 9.00577 23.8167 8.94109 23.5 8.80957L30 11.2296V8.99957H24.5Z" fill="#D2D2D2"/>
<path id="Vector_3" d="M29.23 8.23L22 1V6.5C22.0025 6.98959 22.1477 7.46783 22.4176 7.87629C22.6875 8.28474 23.0706 8.60572 23.52 8.8C23.8367 8.93152 24.1771 8.9962 24.52 8.99H30L29.23 8.23Z" fill="#E8EBED"/>
<path id="Vector_4" d="M16.2387 12.0002C16.2387 12.0002 16.2387 11.9402 16.2387 11.9102L14.1687 14.0002C14.2787 14.1802 14.3787 14.3302 14.4587 14.4402C14.2487 14.9102 13.9888 15.5002 13.7188 16.0802L15.9987 13.8002C16.1671 13.2153 16.248 12.6087 16.2387 12.0002Z" fill="#DD0000"/>
<path id="Vector_5" d="M18.3798 17.7296L17.7098 16.8896L15.8398 18.7896C16.3474 18.7846 16.8549 18.808 17.3598 18.8596L18.4498 17.7396L18.3798 17.7296Z" fill="#DD0000"/>
<path id="Vector_6" d="M16.65 17.4302L17.48 16.5802L16.79 15.6602L16 16.5002L16.65 17.4302Z" fill="#DD0000"/>
<path id="Vector_7" d="M15.2889 15.5596L15.7489 16.1896L16.5689 15.3496C16.2889 14.9496 16.0689 14.6296 15.9089 14.3496L13.2489 17.0696L12.8089 18.0196L12.1389 18.1996L9.99892 20.4196C9.97033 20.614 9.99967 20.8126 10.0833 20.9904C10.1668 21.1683 10.301 21.3175 10.4689 21.4196H10.5989L14.3689 17.5796L15.2889 15.5596ZM11.2889 20.2096C11.3214 20.1387 11.3617 20.0717 11.4089 20.0096C11.5916 19.7987 11.8164 19.6284 12.0689 19.5096C11.883 19.8255 11.5984 20.0715 11.2589 20.2096H11.2889Z" fill="#DD0000"/>
<path id="Vector_8" d="M15.4303 17.5596H14.8803L11.0703 21.4996C11.6178 21.4407 12.1239 21.1806 12.4903 20.7696C12.9461 20.2601 13.3205 19.6833 13.6003 19.0596C14.158 18.9235 14.7271 18.8398 15.3003 18.8096L16.5103 17.5796C16.151 17.5527 15.7904 17.546 15.4303 17.5596Z" fill="#DD0000"/>
<path id="Vector_9" d="M18.9198 17.8096L17.8398 18.9096L18.0798 19.2596L18.4898 19.8596L20.2098 18.0996C19.7854 17.9795 19.3548 17.8827 18.9198 17.8096Z" fill="#DD0000"/>
<path id="Vector_10" d="M21.1195 21.3497C21.3106 21.2745 21.4815 21.1559 21.6186 21.0031C21.7557 20.8503 21.8553 20.6677 21.9095 20.4697V20.4197V20.3497C21.9873 19.9547 21.9383 19.5452 21.7695 19.1797L19.7695 21.1797C19.9659 21.311 20.1901 21.3947 20.4244 21.4242C20.6588 21.4537 20.8968 21.4282 21.1195 21.3497Z" fill="#DD0000"/>
<path id="Vector_11" d="M20.1405 19.94C19.938 19.743 19.757 19.5252 19.6005 19.29L18.7305 20.17C18.9575 20.476 19.2192 20.7545 19.5105 21L20.4005 20.09C20.3093 20.0483 20.2222 19.9981 20.1405 19.94Z" fill="#DD0000"/>
<path id="Vector_12" d="M20.0003 19.3602H20.1703C20.3803 19.4162 20.5664 19.539 20.7003 19.7102L21.5603 18.8302C21.351 18.5771 21.0785 18.3838 20.7703 18.2702L20.5703 18.2002L19.5703 19.2002L20.0003 19.3602Z" fill="#DD0000"/>
<path id="Vector_13" d="M13.6698 11.55C13.6312 11.6636 13.6044 11.7809 13.5898 11.9L14.9998 10.5C14.692 10.4987 14.3929 10.6018 14.1513 10.7926C13.9097 10.9833 13.74 11.2503 13.6698 11.55Z" fill="#DD0000"/>
<path id="Vector_14" d="M10.1484 19.7296L11.2584 18.5996C10.7891 18.8638 10.4042 19.2556 10.1484 19.7296Z" fill="#EA4C3A"/>
<path id="Vector_15" d="M14.8003 11.9504C14.8003 11.9504 14.8703 11.8204 14.9003 11.8204C14.9303 11.8204 15.0003 11.8804 15.0303 11.9904C15.0746 12.1879 15.0746 12.3928 15.0303 12.5904L16.1203 11.4804C16.0628 11.2925 15.9675 11.1185 15.8403 10.9688C15.713 10.8192 15.5565 10.6972 15.3803 10.6104L13.5703 12.4504C13.6301 12.8776 13.7656 13.2907 13.9703 13.6704L14.9003 12.7304C14.7772 12.4899 14.7418 12.2141 14.8003 11.9504Z" fill="#DD0000"/>
<path id="Vector_16" d="M15.0019 12.9101C15.0019 12.7801 15.0019 12.6801 15.0619 12.5801L14.9219 12.7201L15.0019 12.9101Z" fill="#E04C3A"/>
<path id="Vector_17" d="M16.1297 11.4697L14.9997 12.5797C14.9997 12.6797 14.9997 12.7797 14.9397 12.9097L14.8597 12.7197L13.9297 13.6597C13.9897 13.7797 14.0597 13.8997 14.1197 13.9997L16.1797 11.8997C16.1779 11.755 16.1612 11.6109 16.1297 11.4697Z" fill="#C70000"/>
<path id="Vector_18" d="M11.7301 18.3704C11.5666 18.4282 11.4091 18.5019 11.2601 18.5904L10.1501 19.7204C10.089 19.8074 10.0386 19.9014 10.0001 20.0004C9.98957 20.1235 9.98957 20.2473 10.0001 20.3704L12.1401 18.1904L11.7301 18.3704Z" fill="#C70000"/>
<path id="Vector_19" d="M15.9113 14.3898L15.8313 14.2698L16.0013 13.7998L13.7513 16.0898L13.2812 17.0898L15.9113 14.3898Z" fill="#C70000"/>
<path id="Vector_20" d="M16.0013 16.4996L16.8212 15.6596L16.6013 15.3496L15.7812 16.1896L16.0013 16.4996Z" fill="#C70000"/>
<path id="Vector_21" d="M14.3216 17.6898V17.5798L10.6016 21.4298H10.7416C10.8511 21.4442 10.962 21.4442 11.0716 21.4298L14.8816 17.5498L14.3216 17.6898Z" fill="#C70000"/>
<path id="Vector_22" d="M16.77 17.5899L16.65 17.4199L16.5 17.5699L16.77 17.5899Z" fill="#E04C3A"/>
<path id="Vector_23" d="M17.4808 16.5801L16.6508 17.4301L16.7708 17.6001H16.5008L15.3008 18.8101H15.8508L17.7208 16.9101L17.4808 16.5801Z" fill="#C70000"/>
<path id="Vector_24" d="M18.4611 17.7402L17.3711 18.8602L17.8511 18.9102L18.9311 17.8102L18.4611 17.7402Z" fill="#C70000"/>
<path id="Vector_25" d="M19.5888 19.2696L20.5888 18.2696L20.1888 18.1396L18.4688 19.8996L18.6588 20.1596L19.5288 19.2796L19.5888 19.2696Z" fill="#C70000"/>
<path id="Vector_26" d="M20.4992 20.1198C20.6192 20.1198 20.6792 20.1198 20.7892 19.9198C20.8024 19.8951 20.8092 19.8677 20.8092 19.8398C20.8092 19.8119 20.8024 19.7844 20.7892 19.7598L20.4492 20.1098L20.4992 20.1198Z" fill="#E04C3A"/>
<path id="Vector_27" d="M21.8188 19.1904C21.7621 19.0724 21.6916 18.9616 21.6088 18.8604L20.7488 19.7404C20.7619 19.765 20.7688 19.7924 20.7688 19.8204C20.7688 19.8483 20.7619 19.8757 20.7488 19.9004C20.6388 20.1404 20.5787 20.1204 20.4587 20.1004H20.3588L19.4688 21.0104C19.5694 21.0921 19.6764 21.1657 19.7888 21.2304L21.8188 19.1904Z" fill="#C70000"/>
<path id="Vector_28" d="M15.0512 10.5H15.0012L13.6312 11.9C13.6073 12.0826 13.6073 12.2674 13.6312 12.45L15.4412 10.61C15.3189 10.5501 15.1868 10.5129 15.0512 10.5Z" fill="#C70000"/>
</g>
<defs>
<clipPath id="clip0_4355_113418">
<rect width="32" height="32" fill="white"/>
</clipPath>
</defs>
</svg>
