<svg width="16" height="16" viewBox="0 0 16 16" fill="none" xmlns="http://www.w3.org/2000/svg">
<path d="M14.4996 13.8751H8.23962L10.9996 11.1101L14.5346 7.57511C14.7206 7.38936 14.8681 7.16879 14.9687 6.92599C15.0694 6.68319 15.1212 6.42294 15.1212 6.16011C15.1212 5.89728 15.0694 5.63702 14.9687 5.39423C14.8681 5.15143 14.7206 4.93085 14.5346 4.74511L10.9996 1.21011C10.8139 1.02416 10.5933 0.876638 10.3505 0.775989C10.1077 0.67534 9.84745 0.623535 9.58462 0.623535C9.32179 0.623535 9.06154 0.67534 8.81874 0.775989C8.57594 0.876638 8.35537 1.02416 8.16962 1.21011L4.63962 4.74511L1.45962 7.92511C1.27367 8.11086 1.12615 8.33143 1.0255 8.57423C0.924852 8.81702 0.873047 9.07728 0.873047 9.34011C0.873047 9.60294 0.924852 9.86319 1.0255 10.106C1.12615 10.3488 1.27367 10.5694 1.45962 10.7551L4.99962 14.2901C5.18887 14.4779 5.41376 14.6259 5.66105 14.7255C5.90834 14.8251 6.17305 14.8743 6.43962 14.8701H14.4996C14.6322 14.8701 14.7594 14.8174 14.8532 14.7237C14.9469 14.6299 14.9996 14.5027 14.9996 14.3701C14.9996 14.2375 14.9469 14.1103 14.8532 14.0166C14.7594 13.9228 14.6322 13.8701 14.4996 13.8701V13.8751ZM8.88462 1.91511C8.97749 1.82213 9.08778 1.74837 9.20918 1.69805C9.33058 1.64772 9.4607 1.62182 9.59212 1.62182C9.72354 1.62182 9.85366 1.64772 9.97506 1.69805C10.0965 1.74837 10.2067 1.82213 10.2996 1.91511L13.8346 5.45011C13.9276 5.54298 14.0014 5.65327 14.0517 5.77467C14.102 5.89607 14.1279 6.02619 14.1279 6.15761C14.1279 6.28902 14.102 6.41915 14.0517 6.54055C14.0014 6.66195 13.9276 6.77224 13.8346 6.86511L10.6496 10.0501L5.69962 5.10011L8.88462 1.91511ZM2.16462 10.0501C2.07164 9.95724 1.99788 9.84695 1.94756 9.72555C1.89724 9.60415 1.87133 9.47402 1.87133 9.34261C1.87133 9.21119 1.89724 9.08107 1.94756 8.95967C1.99788 8.83827 2.07164 8.72798 2.16462 8.63511L4.99962 5.80511L9.94962 10.7551L7.11962 13.5851C7.02675 13.6781 6.91646 13.7518 6.79506 13.8022C6.67366 13.8525 6.54354 13.8784 6.41212 13.8784C6.2807 13.8784 6.15058 13.8525 6.02918 13.8022C5.90778 13.7518 5.79749 13.6781 5.70462 13.5851L2.16462 10.0501Z" fill="black"/>
</svg>
