<svg width="16" height="16" viewBox="0 0 16 16" fill="none" xmlns="http://www.w3.org/2000/svg">
<g clip-path="url(#clip0_4125_169245)">
<path d="M13.0386 8.60167C13.6575 7.52981 13.8252 6.25602 13.5049 5.06051C13.1845 3.86501 12.4024 2.84573 11.3305 2.22689C10.2587 1.60805 8.98489 1.44035 7.78939 1.76069C6.59388 2.08102 5.57457 2.86315 4.95573 3.93501L2.95573 7.39911C2.33689 8.47097 2.16921 9.74479 2.48954 10.9403C2.80988 12.1358 3.59199 13.1551 4.66385 13.7739" stroke="#DD0000" stroke-linecap="round" stroke-linejoin="round"/>
<path d="M13.0394 8.60144L11.1527 11.8692C10.7991 12.4817 10.2166 12.9286 9.5335 13.1117C8.85036 13.2947 8.12247 13.1989 7.50998 12.8453C6.89749 12.4917 6.45059 11.9092 6.26755 11.2261C6.0845 10.543 6.18029 9.81505 6.53392 9.20256L8.75391 5.35742" stroke="#DD0000" stroke-linecap="round" stroke-linejoin="round"/>
</g>
<defs>
<clipPath id="clip0_4125_169245">
<rect width="16" height="16" fill="white"/>
</clipPath>
</defs>
</svg>
